<svg width="22" height="22" viewBox="0 0 22 22" fill="none" xmlns="http://www.w3.org/2000/svg">
<g filter="url(#filter0_d_8_1449)">
<rect x="4" width="14" height="14" rx="7" fill="#27AE60" shape-rendering="crispEdges"/>
<path d="M8.54688 10.5H13.3662V9.57715H10.0117V9.5332L11.6133 7.96094C12.8779 6.71094 13.2539 6.13965 13.2539 5.33398V5.32422C13.2539 4.18652 12.2871 3.33691 10.9346 3.33691C9.55762 3.33691 8.48828 4.25 8.48828 5.50977V5.53906H9.52344V5.50977C9.5332 4.79688 10.124 4.24023 10.9492 4.24023C11.6621 4.24023 12.1699 4.71875 12.1748 5.3877V5.39746C12.1748 5.94434 11.9648 6.31543 11.0273 7.25293L8.54688 9.74805V10.5Z" fill="white"/>
</g>
<defs>
<filter id="filter0_d_8_1449" x="0" y="0" width="22" height="22" filterUnits="userSpaceOnUse" color-interpolation-filters="sRGB">
<feFlood flood-opacity="0" result="BackgroundImageFix"/>
<feColorMatrix in="SourceAlpha" type="matrix" values="0 0 0 0 0 0 0 0 0 0 0 0 0 0 0 0 0 0 127 0" result="hardAlpha"/>
<feOffset dy="4"/>
<feGaussianBlur stdDeviation="2"/>
<feComposite in2="hardAlpha" operator="out"/>
<feColorMatrix type="matrix" values="0 0 0 0 0 0 0 0 0 0 0 0 0 0 0 0 0 0 0.25 0"/>
<feBlend mode="normal" in2="BackgroundImageFix" result="effect1_dropShadow_8_1449"/>
<feBlend mode="normal" in="SourceGraphic" in2="effect1_dropShadow_8_1449" result="shape"/>
</filter>
</defs>
</svg>
